@startuml
title 类图基本元素-c11

abstract        抽象
abstract class  抽象(等同abstract)
annotation      注解
circle          圆
()              圆缩写形式
class           类
diamond         菱形
<>              菱形写形式
entity          实例
enum            枚举
interface       接口

车  <|- 小汽车
小汽车 "1" *-- "4" 轮子 : 拥有 4 >
小汽车 *-- 发动机 : 驱动 <
小汽车 o-- 千斤顶
小汽车 -- 人 : < 所属
@enduml


@startuml
title 类图访问权限控制-c12

class Object << general >>
Object <|- Array
Object : ~ equals()

note "This is a floating note" as N1

Object .. N1
N1 .. Array

class Array
note left: On last defined class

Array : - Object[] datas
Array : # size()
class Array {
    - int size
    + get_by_index(id)
}
@enduml


@startuml
title 类图访问权限控制显示文本-c13

skinparam classAttributeIconSize 0

Object <|- Array
Object : ~ equals()
Array : - Object[] datas
Array : # size()
class Array {
    - int size
    + get_by_index(id)
}
@enduml


@startuml
title 泛型-c14

class Foo<? extends Element> {
  int size()
}
Foo *- Element
@enduml


@startuml
title 箭头方向控制-c15

left to right direction
教室 o- 学生
老师 .o 教室

教室 *-- 椅子
教室 *-up- 黑板
教室 *-- 桌子
@enduml


@startuml
title 继承关系分组-c16

skinparam groupInheritance 3

A1 <|-- B1

A2 <|-- B2
A2 <|-- C2

A3 <|-- B3
A3 <|-- C3
A3 <|-- D3

A4 <|-- B4
A4 <|-- C4
A4 <|-- D4
A4 <|-- E4
@enduml
